<?xml version="1.0" encoding="utf-8"?>
<!-- Generator: Adobe Illustrator 27.8.1, SVG Export Plug-In . SVG Version: 6.00 Build 0)  -->
<svg version="1.1" id="Layer_1" xmlns="http://www.w3.org/2000/svg" xmlns:xlink="http://www.w3.org/1999/xlink" x="0px" y="0px"
	 viewBox="0 0 841.89 595.28" style="enable-background:new 0 0 841.89 595.28;" xml:space="preserve">
<style type="text/css">
	.st0{fill:#231F20;stroke:#000000;stroke-width:2;stroke-miterlimit:10;}
	.st1{fill:#FFFFFF;stroke:#FDFDBD;stroke-width:0.8925;stroke-miterlimit:10;}
	.st2{fill:none;stroke:#FDFDBD;stroke-width:7.1401;stroke-miterlimit:10;}
	.st3{fill:#231F20;}
	.st4{fill:#FDFDBD;stroke:#FDFDBD;stroke-width:7.1401;stroke-miterlimit:10;}
	.st5{fill:#B1AFFF;stroke:#FDFDBD;stroke-width:7.1401;stroke-miterlimit:10;}
	.st6{fill:#231F20;stroke:#B1AFFF;stroke-width:7.1401;stroke-miterlimit:10;}
	.st7{stroke:#B1AFFF;stroke-width:7.1401;stroke-miterlimit:10;}
	.st8{fill:#FFFFFF;stroke:#FDFDBD;stroke-width:7.1401;stroke-miterlimit:10;}
	.st9{fill:none;}
	.st10{fill:#FFFFFF;stroke:#000000;stroke-width:2;stroke-miterlimit:10;}
	.st11{font-family:'MyriadPro-Regular';}
	.st12{font-size:180px;}
	.st13{letter-spacing:45;}
</style>
<rect x="1.4" y="-0.57" class="st0" width="845.62" height="479.49"/>
<g>
	<g>
		<path class="st1" d="M49.7,147.46c0,12.84,3.77,24.8,10.26,34.84c4.95-36.8,17.98-70.08,36.67-96.74
			C69.57,93.12,49.7,117.98,49.7,147.46z M114.1,211.72c-0.01,0-0.01,0-0.02,0c-0.01,0-0.01,0-0.02,0h-0.04
			c-0.03,0-0.04,0-0.06-0.01h-0.5c0.17,0.01,0.33,0.01,0.5,0.01v0.72h0.22c-0.01-0.24,0-0.48,0.01-0.72H114.1z M216.67,341.94
			c-2.16,0.2-4.35,0.29-6.55,0.29h6.66C216.73,342.14,216.7,342.04,216.67,341.94z M204.02,341.98c-0.03,0.09-0.06,0.17-0.1,0.26
			h6.19C208.07,342.24,206.04,342.15,204.02,341.98z M306.05,211.72c0.01,0.24,0.02,0.48,0.01,0.72h0.24v-0.72H306.05z M205.07,84.3
			c0.03,0.05,0.04,0.12,0.05,0.17c1.65-0.12,3.32-0.17,5-0.17H205.07z M210.12,84.3c1.83,0,3.64,0.07,5.44,0.21
			c0.02-0.07,0.04-0.13,0.07-0.21H210.12z M323.17,84.3h-4.95c2.03,0.37,4.01,0.85,5.95,1.41C323.85,85.24,323.51,84.78,323.17,84.3
			z M294.37,84.3h23.85c-3.86-0.72-7.85-1.11-11.92-1.11S298.24,83.58,294.37,84.3z M113.96,83.2c-4.08,0-8.06,0.38-11.92,1.11
			h23.85C122.02,83.58,118.04,83.2,113.96,83.2z M97.53,84.3c-0.3,0.42-0.6,0.84-0.89,1.26c1.77-0.5,3.57-0.92,5.4-1.26H97.53z
			 M59.26,243.33c-5.92,9.73-9.33,21.14-9.33,33.37c0,27.12,16.81,50.32,40.57,59.75C74.21,310.08,63.12,278.18,59.26,243.33z
			 M361.41,243.63c-3.89,34.69-14.92,66.43-31.14,92.7c23.62-9.51,40.29-32.63,40.29-59.64
			C370.56,264.61,367.22,253.29,361.41,243.63z M324.17,85.72c18.54,26.5,31.49,59.5,36.49,96c6.27-9.92,9.89-21.67,9.89-34.26
			C370.56,118.17,350.97,93.46,324.17,85.72z"/>
		<path class="st2" d="M96.64,85.56c-18.69,26.66-31.72,59.94-36.67,96.74c-6.5-10.04-10.26-22-10.26-34.84
			C49.7,117.98,69.57,93.12,96.64,85.56z"/>
		<path class="st2" d="M102.04,84.3c-1.83,0.34-3.63,0.76-5.4,1.26c0.29-0.42,0.59-0.84,0.89-1.26H102.04z"/>
		<path class="st2" d="M125.88,84.3h-23.85c3.86-0.72,7.85-1.11,11.92-1.11C118.04,83.2,122.02,83.58,125.88,84.3z"/>
		<path class="st2" d="M90.51,336.45c-23.77-9.43-40.57-32.63-40.57-59.75c0-12.23,3.41-23.64,9.33-33.37
			C63.12,278.18,74.21,310.08,90.51,336.45z"/>
		<path class="st2" d="M114.19,211.72c-0.01,0.24-0.02,0.48-0.01,0.72h-0.22v-0.71c0.02-0.01,0.04-0.01,0.06-0.01h0.04
			c0.01,0,0.01,0,0.02,0c0.01,0,0.01,0,0.02,0H114.19z"/>
		<path class="st2" d="M306.3,211.72v0.72h-0.24c0.01-0.24,0-0.48-0.01-0.72H306.3z"/>
		<path class="st2" d="M370.56,276.7c0,27.01-16.67,50.13-40.29,59.64c16.22-26.28,27.25-58.01,31.14-92.7
			C367.22,253.29,370.56,264.61,370.56,276.7z"/>
		<path class="st2" d="M306.3,83.2c4.08,0,8.06,0.38,11.92,1.11h-23.85C298.24,83.58,302.22,83.2,306.3,83.2z"/>
		<path class="st2" d="M324.17,85.71c-1.95-0.56-3.93-1.04-5.95-1.41h4.95C323.51,84.78,323.85,85.24,324.17,85.71z"/>
		<path class="st2" d="M370.56,147.46c0,12.59-3.62,24.35-9.89,34.26c-5.01-36.49-17.96-69.5-36.49-96
			C350.97,93.46,370.56,118.17,370.56,147.46z"/>
		<g>
			<path class="st3" d="M9.82,10.01v403.57h400.6V10.01H9.82z M362.97,215.66c0,4.8-0.13,9.57-0.41,14.29
				c24.04,17.42,39.68,45.74,39.68,77.71c0,52.99-42.96,95.94-95.94,95.94c-13.33,0-26.04-2.72-37.58-7.65
				c-9.21,4.88-18.88,8.64-28.9,11.14c-0.01,0-0.01,0-0.02,0c-9.52,2.38-19.38,3.63-29.44,3.63c-10.23,0-20.22-1.29-29.88-3.74
				h-0.01c-9.87-2.51-19.39-6.22-28.47-11.03c-11.54,4.93-24.25,7.65-37.58,7.65c-52.99,0-95.94-42.96-95.94-95.94
				c0-31.97,15.64-60.29,39.68-77.71c-0.28-4.72-0.41-9.49-0.41-14.29c0-7.36,0.32-14.63,0.95-21.78
				c-24.35-17.4-40.22-45.9-40.22-78.11c0-11.02,1.86-21.61,5.28-31.47c13.02-37.53,48.7-64.47,90.66-64.47H306.3
				c41.97,0,77.64,26.94,90.66,64.47c3.43,9.86,5.28,20.45,5.28,31.47c0,32.21-15.87,60.71-40.22,78.11
				C362.65,201.03,362.97,208.3,362.97,215.66z"/>
		</g>
		<path class="st4" d="M306.3,19.83c-16.56,0-32.14,4.19-45.74,11.58c-7.71,4.2-14.79,9.42-21.04,15.49
			c-10.66,10.31-18.92,23.09-23.88,37.41h-89.75c-3.86-0.72-7.85-1.11-11.92-1.11c-4.08,0-8.06,0.38-11.92,1.11h-4.51
			c-0.3,0.42-0.6,0.84-0.89,1.26c-27.07,7.56-46.94,32.42-46.94,61.9c0,12.84,3.77,24.8,10.26,34.84v0.01
			c-0.53,3.83-0.95,7.68-1.29,11.58c-24.35-17.4-40.22-45.9-40.22-78.11c0-11.02,1.86-21.61,5.28-31.47
			c13.02-37.53,48.7-64.47,90.66-64.47H306.3z"/>
		<path class="st4" d="M402.24,307.66c0,52.99-42.96,95.94-95.94,95.94c-13.33,0-26.04-2.72-37.58-7.65
			c-10.92-4.65-20.8-11.26-29.19-19.42c-9.88-9.56-17.7-21.24-22.74-34.3c-0.04-0.1-0.08-0.2-0.11-0.29
			c-2.16,0.2-4.35,0.29-6.55,0.29c-2.05,0-4.08-0.09-6.1-0.26c-0.03,0.09-0.06,0.17-0.1,0.26c-5.12,13.26-13.1,25.1-23.2,34.74
			c-8.29,7.95-18.01,14.42-28.74,18.98c-11.54,4.93-24.25,7.65-37.58,7.65c-52.99,0-95.94-42.96-95.94-95.94
			c0-31.97,15.64-60.29,39.68-77.71c0.25,4.5,0.62,8.96,1.12,13.38c-5.92,9.73-9.33,21.14-9.33,33.37
			c0,27.12,16.81,50.32,40.57,59.75c7.27,2.88,15.17,4.48,23.46,4.51v1.28h66.77V84.3h24.34c0.03,0.05,0.04,0.12,0.05,0.17
			c1.65-0.12,3.32-0.17,5-0.17c1.83,0,3.64,0.07,5.44,0.21c0.02-0.07,0.04-0.13,0.07-0.21h23.88v257.93h66.78v-1.28
			c8.48,0,16.56-1.64,23.97-4.62c23.62-9.51,40.29-32.63,40.29-59.64c0-12.09-3.34-23.41-9.15-33.07c0.51-4.52,0.9-9.08,1.15-13.68
			C386.6,247.37,402.24,275.69,402.24,307.66z"/>
		<path class="st4" d="M402.24,115.77c0,32.21-15.87,60.71-40.22,78.11c-0.35-4.09-0.8-8.15-1.36-12.16
			c6.27-9.92,9.89-21.67,9.89-34.26c0-29.28-19.59-54-46.38-61.73v-0.01c-0.32-0.47-0.66-0.94-1-1.41h-4.95
			c-3.86-0.72-7.85-1.11-11.92-1.11s-8.06,0.38-11.92,1.11h-78.74c4.96-14.32,13.23-27.1,23.88-37.41
			c6.25-6.08,13.33-11.29,21.04-15.49c13.6-7.38,29.19-11.58,45.74-11.58c41.97,0,77.64,26.94,90.66,64.47
			C400.38,94.17,402.24,104.75,402.24,115.77z"/>
		<path class="st2" d="M125.88,84.3h-23.85c3.86-0.72,7.85-1.11,11.92-1.11C118.04,83.2,122.02,83.58,125.88,84.3z"/>
		<path class="st2" d="M318.22,84.3h-23.85c3.86-0.72,7.85-1.11,11.92-1.11S314.36,83.58,318.22,84.3z"/>
		<path class="st2" d="M210.12,342.24h-6.19c0.04-0.09,0.07-0.17,0.1-0.26C206.04,342.15,208.07,342.24,210.12,342.24z"/>
		<path class="st2" d="M216.78,342.24h-6.66c2.2,0,4.39-0.1,6.55-0.29C216.7,342.04,216.73,342.14,216.78,342.24z"/>
		<path class="st2" d="M210.12,84.3c-1.68,0-3.35,0.05-5,0.17c-0.01-0.05-0.03-0.12-0.05-0.17H210.12z"/>
		<path class="st2" d="M215.64,84.3c-0.03,0.07-0.05,0.13-0.07,0.21c-1.8-0.13-3.61-0.21-5.44-0.21H215.64z"/>
		<path class="st2" d="M114.19,211.72c-0.01,0.24-0.02,0.48-0.01,0.72h-0.22v-0.72c-0.17,0-0.33,0-0.5-0.01h0.5
			c0.03,0.01,0.04,0.01,0.06,0.01h0.04c0.01,0,0.01,0,0.02,0c0.01,0,0.01,0,0.02,0H114.19z"/>
		<path class="st5" d="M268.71,395.96c-9.21,4.88-18.88,8.64-28.9,11.14c-0.01,0-0.01,0-0.02,0c-9.52,2.38-19.38,3.63-29.44,3.63
			c-10.23,0-20.22-1.29-29.88-3.74h-0.01c-9.87-2.51-19.39-6.22-28.47-11.03c10.73-4.56,20.45-11.03,28.74-18.98
			c10.09-9.64,18.07-21.47,23.2-34.74h12.85c5.04,13.06,12.86,24.74,22.74,34.3C247.92,384.69,257.79,391.31,268.71,395.96z"/>
		<path class="st2" d="M210.12,342.24h-6.19c0.04-0.09,0.07-0.17,0.1-0.26C206.04,342.15,208.07,342.24,210.12,342.24z"/>
		<path class="st2" d="M216.78,342.24h-6.66c2.2,0,4.39-0.1,6.55-0.29C216.7,342.04,216.73,342.14,216.78,342.24z"/>
		<path class="st2" d="M306.3,211.72v0.72h-0.24c0.01-0.24,0-0.48-0.01-0.72H306.3z"/>
		<path class="st2" d="M102.04,84.3c-1.83,0.34-3.63,0.76-5.4,1.26c0.29-0.42,0.59-0.84,0.89-1.26H102.04z"/>
		<path class="st2" d="M125.88,84.3h-23.85c3.86-0.72,7.85-1.11,11.92-1.11C118.04,83.2,122.02,83.58,125.88,84.3z"/>
		<path class="st4" d="M113.96,211.71h-0.5C113.63,211.72,113.79,211.72,113.96,211.71v0.73h0.22c-0.01,0.28-0.01,0.55-0.01,0.83
			c0,46.07,17.98,86.5,45.01,109.31c6.67,5.64,13.9,10.19,21.55,13.49v6.17h-66.77v-1.28c-8.28-0.03-16.19-1.62-23.46-4.51
			c-16.3-26.37-27.38-58.27-31.25-93.12c-0.49-4.42-0.87-8.88-1.12-13.38c-0.28-4.72-0.41-9.49-0.41-14.29
			c0-7.36,0.32-14.63,0.95-21.78c0.33-3.89,0.76-7.75,1.29-11.58v-0.01c4.95-36.8,17.98-70.08,36.67-96.74
			c1.77-0.5,3.57-0.92,5.4-1.26h78.69v6.18c-7.2,3.11-14.04,7.33-20.38,12.51c-13.44,10.99-24.71,26.28-32.75,44.46
			c-8.34,18.85-13.21,40.8-13.41,64.26h-0.09c-0.01,0-0.01,0-0.02,0c-0.01,0-0.01,0-0.02,0h-0.04
			C114,211.72,113.99,211.72,113.96,211.71z"/>
		<path class="st2" d="M210.12,84.3c-1.68,0-3.35,0.05-5,0.17c-0.01-0.05-0.03-0.12-0.05-0.17H210.12z"/>
		<path class="st2" d="M215.64,84.3c-0.03,0.07-0.05,0.13-0.07,0.21c-1.8-0.13-3.61-0.21-5.44-0.21H215.64z"/>
		<path class="st2" d="M306.3,83.2c4.08,0,8.06,0.38,11.92,1.11h-23.85C298.24,83.58,302.22,83.2,306.3,83.2z"/>
		<path class="st2" d="M324.17,85.71c-1.95-0.56-3.93-1.04-5.95-1.41h4.95C323.51,84.78,323.85,85.24,324.17,85.71z"/>
		<path class="st6" d="M96.64,85.56c-18.69,26.66-31.72,59.94-36.67,96.74c-6.5-10.04-10.26-22-10.26-34.84
			C49.7,117.98,69.57,93.12,96.64,85.56z"/>
		<path class="st2" d="M125.88,84.3h-23.85c3.86-0.72,7.85-1.11,11.92-1.11C118.04,83.2,122.02,83.58,125.88,84.3z"/>
		<path class="st2" d="M114.02,211.72h-0.06c-0.17,0-0.33,0-0.5-0.01h0.5C113.99,211.72,114,211.72,114.02,211.72z"/>
		<path class="st2" d="M318.22,84.3h-23.85c3.86-0.72,7.85-1.11,11.92-1.11S314.36,83.58,318.22,84.3z"/>
		<path class="st4" d="M362.97,215.66c0,4.8-0.13,9.57-0.41,14.29c-0.25,4.61-0.64,9.17-1.15,13.68
			c-3.89,34.69-14.92,66.43-31.14,92.7c-7.41,2.98-15.49,4.62-23.97,4.62v1.28h-66.78v-6.17c7.69-3.32,14.97-7.92,21.68-13.6
			c26.96-22.84,44.87-63.21,44.87-109.2c0-0.28,0-0.55-0.01-0.83h0.24v-0.72h-0.25c-0.2-23.46-5.06-45.41-13.41-64.26
			c-8.03-18.18-19.3-33.48-32.74-44.46c-6.35-5.19-13.18-9.42-20.38-12.52V84.3h78.7c2.03,0.37,4.01,0.85,5.95,1.41v0.01
			c18.54,26.5,31.49,59.5,36.49,96c0.55,4.02,1.01,8.08,1.36,12.16C362.65,201.03,362.97,208.3,362.97,215.66z"/>
		<path class="st2" d="M210.12,342.24h-6.19c0.04-0.09,0.07-0.17,0.1-0.26C206.04,342.15,208.07,342.24,210.12,342.24z"/>
		<path class="st2" d="M216.78,342.24h-6.66c2.2,0,4.39-0.1,6.55-0.29C216.7,342.04,216.73,342.14,216.78,342.24z"/>
		<path class="st6" d="M306.06,213.27c0,45.99-17.9,86.36-44.87,109.2c-6.71,5.69-13.99,10.28-21.68,13.6V90.48
			c7.2,3.11,14.03,7.33,20.38,12.52c13.43,10.98,24.7,26.28,32.74,44.46c8.34,18.85,13.21,40.8,13.41,64.26
			c0.01,0.24,0.02,0.48,0.01,0.72C306.06,212.72,306.06,212.99,306.06,213.27z"/>
		<path class="st7" d="M90.51,336.45c-23.77-9.43-40.57-32.63-40.57-59.75c0-12.23,3.41-23.64,9.33-33.37
			C63.12,278.18,74.21,310.08,90.51,336.45z"/>
		<path class="st7" d="M370.56,276.7c0,27.01-16.67,50.13-40.29,59.64c16.22-26.28,27.25-58.01,31.14-92.7
			C367.22,253.29,370.56,264.61,370.56,276.7z"/>
		
			<rect x="410.43" y="409.03" transform="matrix(-1 -1.224647e-16 1.224647e-16 -1 820.8511 818.059)" class="st8" width="0" height="0"/>
		<path class="st7" d="M370.56,147.46c0,12.59-3.62,24.35-9.89,34.26c-5.01-36.49-17.96-69.5-36.49-96
			C350.97,93.46,370.56,118.17,370.56,147.46z"/>
		<path class="st6" d="M180.73,90.48v245.59c-7.65-3.3-14.88-7.85-21.55-13.49c-27.03-22.8-45.01-63.23-45.01-109.31
			c0-0.28,0-0.55,0.01-0.83c-0.01-0.24,0-0.48,0.01-0.72c0.2-23.46,5.06-45.41,13.41-64.26c8.03-18.18,19.3-33.48,32.75-44.46
			C166.69,97.81,173.53,93.59,180.73,90.48z"/>
	</g>
	<rect x="428.62" y="281.3" class="st9" width="416.87" height="131.57"/>
	<text transform="matrix(1 0 0 1 428.6233 409.0964)" class="st10 st11 st12 st13">JOC</text>
</g>
<rect x="1038.2" y="233.44" class="st9" width="375.14" height="69.7"/>
<text transform="matrix(1 0 0 1 1038.1968 284.5579)" class="st11" style="fill:none;stroke:#000000;stroke-width:2;stroke-miterlimit:10; font-size:72px; letter-spacing:18;">JOC.com</text>
</svg>
